<?xml version="1.0" standalone="no"?>
<!DOCTYPE svg PUBLIC "-//W3C//DTD SVG 20010904//EN"
 "http://www.w3.org/TR/2001/REC-SVG-20010904/DTD/svg10.dtd">
<svg version="1.0" xmlns="http://www.w3.org/2000/svg"
 width="210.000000pt" height="210.000000pt" viewBox="0 0 210.000000 210.000000"
 preserveAspectRatio="xMidYMid meet">
<metadata>
Created by potrace 1.14, written by Peter Selinger 2001-2017
</metadata>
<g transform="translate(0.000000,210.000000) scale(0.100000,-0.100000)"
fill="#000000" stroke="none">
<path d="M611 1780 c-145 -39 -252 -99 -357 -204 -102 -103 -165 -212 -194
-336 -7 -30 -16 -66 -20 -80 -13 -45 -4 -241 15 -315 74 -294 293 -496 605
-562 58 -12 246 -5 310 12 83 23 107 23 210 1 162 -36 366 -8 500 66 265 147
404 397 393 705 -12 356 -256 647 -604 719 -91 18 -267 8 -355 -21 -36 -12
-48 -11 -110 7 -102 30 -294 34 -393 8z m889 -294 c213 -84 334 -330 280 -571
-37 -165 -198 -327 -349 -351 -43 -7 -53 3 -26 26 30 25 105 191 119 265 32
156 19 327 -33 465 -20 52 -61 128 -97 177 -16 23 -16 23 17 17 19 -4 59 -16
89 -28z m-770 18 c0 -3 -11 -20 -24 -37 -55 -74 -103 -197 -121 -310 -31 -190
20 -420 123 -555 14 -18 23 -34 21 -37 -8 -8 -89 15 -142 40 -68 33 -159 113
-193 171 -85 144 -88 358 -7 505 33 62 109 140 169 175 61 36 174 67 174 48z
m385 -130 c98 -104 137 -213 130 -364 -6 -139 -47 -233 -141 -325 l-46 -45
-28 20 c-35 25 -93 96 -119 146 -57 110 -66 277 -21 409 26 78 130 215 163
215 5 0 33 -25 62 -56z"/>
</g>
</svg>
